<svg width="40" height="40" viewBox="0 0 40 40" fill="none" xmlns="http://www.w3.org/2000/svg">
<g clip-path="url(#clip0_224_781)">
<path d="M13.9632 20.2344C13.895 18.7106 13.9293 17.212 14.0662 15.7387C14.203 14.2653 14.4413 12.7934 14.7811 11.3229C14.3383 11.5574 13.9334 11.838 13.5663 12.1646C13.1992 12.4911 12.8564 12.8285 12.538 13.1768C10.6502 15.2414 9.76815 17.6547 9.89174 20.4166C10.0153 23.1785 11.1095 25.5033 13.1741 27.3911C13.5223 27.7095 13.8995 28.0087 14.3057 28.2888C14.7119 28.5688 15.1346 28.8183 15.5738 29.0372C15.1041 27.6029 14.7352 26.1582 14.4673 24.7029C14.1994 23.2477 14.0314 21.7582 13.9632 20.2344ZM18.0005 20.0895C18.1092 22.5181 18.532 24.9028 19.269 27.2436C20.0059 29.5844 21.0425 31.8223 22.3786 33.9574C20.2236 34.3163 18.1007 34.1906 16.0097 33.5804C13.9188 32.9702 12.0649 31.9259 10.448 30.4475C7.53762 27.7865 5.99559 24.5155 5.82191 20.6345C5.64824 16.7536 6.89193 13.3579 9.55298 10.4475C11.0313 8.83063 12.7846 7.62492 14.8127 6.83038C16.8407 6.03583 18.944 5.72103 21.1224 5.88597C19.9823 8.13185 19.1498 10.4534 18.6249 12.8507C18.0999 15.248 17.8918 17.6609 18.0005 20.0895ZM26.3648 32.6697C25.981 32.0904 25.6148 31.5044 25.2662 30.9116C24.9176 30.3189 24.598 29.7069 24.3073 29.0758C24.9157 28.81 25.4738 28.4868 25.9816 28.1062C26.4894 27.7256 26.9708 27.2866 27.4257 26.7891C29.3134 24.7245 30.195 22.2993 30.0703 19.5136C29.9457 16.7279 28.851 14.3911 26.7864 12.5034C26.2889 12.0485 25.7702 11.6542 25.2304 11.3205C24.6907 10.9868 24.1059 10.7148 23.4762 10.5044C23.7093 9.84978 23.9736 9.22364 24.2689 8.62592C24.5642 8.0282 24.8771 7.42373 25.2076 6.81251C26.0093 7.13449 26.7723 7.52382 27.4965 7.98048C28.2207 8.43714 28.9062 8.96115 29.553 9.55249C32.4634 12.2135 34.0054 15.4845 34.1791 19.3655C34.3527 23.2464 33.109 26.6421 30.448 29.5525C29.8567 30.1992 29.2207 30.7824 28.5402 31.3019C27.8596 31.8214 27.1345 32.2773 26.3648 32.6697Z" fill="#1B55EB"/>
</g>
<defs>
<clipPath id="clip0_224_781">
<rect width="40" height="40" fill="white"/>
</clipPath>
</defs>
</svg>
